# xmcd
#
# Track frame offsets:
#	300
#	13372
#	25290
#	44782
#	63122
#	82727
#	96292
#	113090
#	128942
#	156360
#	172105
#	183227
#
# Disc length: 2661 seconds
#
# Revision: 0
# Processed by: cddbd v1.5.2PL0 Copyright (c) Steve Scherf et al.
# Submitted via: EasyCDDAExtractor 12.0.1.1
#
DISCID=a10a610c
DTITLE=Big Mark And The Blues Express - Steak And Potatoes
DYEAR=2001
DGENRE=Blues
TTITLE0=They Call Me Big Mark
TTITLE1=My Baby's Gone
TTITLE2=Built For Comfort
TTITLE3=Mule Kicking In My Stall
TTITLE4=Alimony Blues
TTITLE5=Caldonia
TTITLE6=Tiger Man
TTITLE7=Oh, Pretty Woman
TTITLE8=I'm Tired
TTITLE9=I Ain't Got You
TTITLE10=She's Dynamite
TTITLE11=You Treat Me Wrong
EXTD=
EXTT0=
EXTT1=
EXTT2=
EXTT3=
EXTT4=
EXTT5=
EXTT6=
EXTT7=
EXTT8=
EXTT9=
EXTT10=
EXTT11=
PLAYORDER=
